<svg width="33" height="36" viewBox="0 0 33 36" fill="none" xmlns="http://www.w3.org/2000/svg">
<g id="Group">
<g id="Group_2">
<g id="Group_3">
<g id="Group_4">
<path id="Vector" fill-rule="evenodd" clip-rule="evenodd" d="M0.158773 12.1715L0.361227 10.6647L0.96172 9.85295L1.96597 9.7373L3.36827 10.3167C4.38281 10.9315 13.8534 16.2361 14.3979 16.9231L15.4021 18.1985L16.0026 19.7042C16.3229 20.4816 16.1788 31.4365 16.2051 32.5701L16.0026 34.0757L15.4021 34.8874L14.3979 35.0019C13.8923 35.0867 4.10945 29.2531 3.36827 28.8604L1.96597 27.8162L0.96172 26.5418L0.361227 25.0339C0.0398207 24.2405 0.186224 13.3142 0.158773 12.1703" fill="url(#paint0_linear_1845_14670)"/>
<path id="Vector_2" fill-rule="evenodd" clip-rule="evenodd" d="M2.16502 7.53569C3.96193 6.09991 12.4878 1.21209 14.5992 0.349934L16.204 0.118652L17.8087 0.349934C18.6345 0.458705 28.0503 6.06785 29.0385 6.60827L30.2406 7.53569L30.6421 8.4631L30.2406 9.39052L29.0385 10.3179C27.9977 10.8916 18.6769 16.4469 17.8087 16.5774L16.204 16.8087L14.5992 16.5774C13.7688 16.4652 4.35883 10.8618 3.36715 10.3179L2.16502 9.39052L1.76355 8.4631L2.16502 7.53569Z" fill="url(#paint1_linear_1845_14670)"/>
<path id="Vector_3" fill-rule="evenodd" clip-rule="evenodd" d="M16.2028 21.4435L16.403 19.7043L17.0046 18.1987L18.0066 16.9232L19.4111 15.8813C20.1855 15.4714 29.8963 9.6722 30.4408 9.7386L31.4427 9.85424L32.0444 10.666L32.2445 12.1728C32.2205 13.3612 32.3646 24.22 32.0444 25.0364L31.4427 26.5443L30.4408 27.8186C29.9272 28.4838 20.3788 33.8377 19.4111 34.4262L18.0066 35.0044L17.0046 34.8899L16.403 34.0781C16.0758 33.6568 16.2348 22.3034 16.2028 21.4458" fill="url(#paint2_linear_1845_14670)"/>
</g>
<g id="Group_5">
<path id="Vector_4" fill-rule="evenodd" clip-rule="evenodd" d="M0.512227 25.5515L0.9606 26.5431L0.360107 25.0352L0.512227 25.5515Z" fill="url(#paint3_linear_1845_14670)"/>
<path id="Vector_5" fill-rule="evenodd" clip-rule="evenodd" d="M3.36708 6.60815L1.96479 7.65121C1.69828 7.87333 1.16299 8.63473 0.96054 8.92669C0.809559 9.24957 0.421812 10.0888 0.360047 10.4335L0.157593 12.1726L0.360047 10.6659L0.96054 9.85411L1.96479 9.73847L3.36708 10.3178L2.16495 9.3904L1.76348 8.46299L2.16495 7.53557L3.36708 6.60815Z" fill="url(#paint4_linear_1845_14670)"/>
<path id="Vector_6" fill-rule="evenodd" clip-rule="evenodd" d="M15.1196 0.223913L14.598 0.348713L16.2028 0.117432L15.1196 0.223913Z" fill="url(#paint5_linear_1845_14670)"/>
<path id="Vector_7" fill-rule="evenodd" clip-rule="evenodd" d="M1.59423 27.428L1.96482 27.8173L0.960571 26.543L1.59423 27.428Z" fill="url(#paint6_linear_1845_14670)"/>
<path id="Vector_8" fill-rule="evenodd" clip-rule="evenodd" d="M17.2848 0.223913L16.2028 0.117432L17.8075 0.348713L17.2848 0.223913Z" fill="url(#paint7_linear_1845_14670)"/>
<path id="Vector_9" fill-rule="evenodd" clip-rule="evenodd" d="M30.8102 27.428L31.4439 26.543L30.4408 27.8173L30.8102 27.428Z" fill="url(#paint8_linear_1845_14670)"/>
<path id="Vector_10" fill-rule="evenodd" clip-rule="evenodd" d="M16.2027 16.8075L14.598 16.5763L12.9944 15.8801L14.3967 16.9232L15.4009 18.1987L16.0003 19.7043L16.2027 21.4435L16.4029 19.7043L17.0045 18.1987L18.0077 16.9232L19.4111 15.8801L17.8075 16.5763L16.2027 16.8075Z" fill="url(#paint9_linear_1845_14670)"/>
<path id="Vector_11" fill-rule="evenodd" clip-rule="evenodd" d="M17.0046 34.8875L16.4029 34.0757L16.2028 32.5701L16.0003 34.0757L15.3998 34.8875L14.3956 35.002L12.9933 34.4238L14.598 35.1187C14.9229 35.239 15.8505 35.3214 16.2028 35.35C16.5585 35.3203 17.4781 35.2378 17.8075 35.1187L19.4123 34.4238L18.0077 35.002L17.0057 34.8875H17.0046Z" fill="url(#paint10_linear_1845_14670)"/>
<path id="Vector_12" fill-rule="evenodd" clip-rule="evenodd" d="M31.8922 25.5515L32.0455 25.0352L31.4438 26.5431L31.8922 25.5515Z" fill="url(#paint11_linear_1845_14670)"/>
<path id="Vector_13" fill-rule="evenodd" clip-rule="evenodd" d="M32.0455 10.4323C31.866 9.65489 31.3135 8.65534 30.8102 8.0405C30.6044 7.72334 29.3496 6.84516 29.0374 6.60815L30.2395 7.53557L30.641 8.46299L30.2395 9.3904L29.0374 10.3178L30.4419 9.73847L31.4439 9.85411L32.0455 10.6659L32.2457 12.1726L32.0455 10.4335V10.4323Z" fill="url(#paint12_linear_1845_14670)"/>
</g>
</g>
<g id="Vector_14" style="mix-blend-mode:overlay">
<path d="M32.3864 12.1715C32.3315 11.7593 32.2114 10.2457 32.0261 9.87698C32.0135 9.85522 31.5846 8.87514 31.5606 8.85797C31.3581 8.53623 30.8217 7.80231 30.5426 7.55386C30.0119 6.88635 20.4738 1.51421 19.481 0.922264C19.4398 0.914249 17.8808 0.215825 17.8384 0.211246C16.8525 -0.0692691 15.5497 -0.071559 14.5638 0.211246C13.7254 0.337191 4.30048 5.92115 3.29394 6.48447C2.97024 6.72949 1.71207 7.60882 1.48903 7.942C1.47416 7.96375 0.842787 8.82591 0.839356 8.85682C0.815336 8.87399 0.386412 9.85522 0.37383 9.87698C0.195398 10.2365 0.0672907 11.7593 0.0146761 12.1715C0.0284016 13.3828 -0.101991 24.2267 0.221703 25.0751C0.260592 25.4541 0.690662 26.2659 0.839356 26.6117C0.839356 26.6197 0.841644 26.6254 0.847363 26.6323C0.861089 26.6472 1.47759 27.5173 1.48903 27.5254C2.38234 28.7825 11.5247 33.6371 12.9441 34.5577C12.9682 34.5634 14.5455 35.2573 14.5626 35.2573C14.9149 35.4175 15.8391 35.4404 16.2143 35.492C16.5917 35.4633 17.4884 35.3786 17.8373 35.2573C17.8545 35.2607 19.4409 34.5588 19.4649 34.5542C20.921 33.6085 29.9798 28.8089 30.9098 27.5254C30.92 27.5173 31.5423 26.6403 31.5549 26.6254C31.5571 26.6174 31.5617 26.6071 31.5686 26.6014C31.7299 26.2522 32.1165 25.4347 32.1759 25.0637C32.4939 24.2851 32.3647 13.3141 32.383 12.1715H32.3864ZM28.9607 28.7413C28.215 29.1352 18.4755 34.9458 17.986 34.8577L17.0813 34.7535L16.538 34.0196C16.2246 33.7058 16.3721 22.2265 16.3435 21.4491L16.5402 19.7385L17.1282 18.2672L18.105 17.0238C18.5911 16.3838 28.1555 11.0151 29.098 10.4426L30.4603 9.88041L31.3661 9.9846L31.9094 10.7162C32.224 11.0437 32.0741 22.5013 32.1027 23.289L31.906 24.9973L31.317 26.4708L30.3401 27.7131L28.9596 28.7402L28.9607 28.7413ZM17.2608 35.1061L16.2017 35.2092C16.1353 35.2 15.027 35.105 15.011 35.0741C15.1036 35.0535 15.4559 35.0535 15.5154 34.9687L16.1136 34.1592C16.1228 34.1478 16.117 34.1363 16.1228 34.1237C16.1468 34.1283 16.196 33.6543 16.2017 33.6371L16.2623 34.094C16.2646 34.1077 16.276 34.1157 16.2806 34.1272C16.2646 34.165 16.8788 34.9367 16.888 34.9676C16.9429 35.0512 17.3043 35.0557 17.3912 35.0729L17.2608 35.1038V35.1061ZM3.44264 28.7413L2.06436 27.7154L1.08298 26.472L0.497362 25.0007L0.298335 23.2924C0.329218 22.4749 0.173664 11.0826 0.493927 10.7208L1.03609 9.98804L1.94312 9.88385C2.37089 9.76935 12.227 15.6361 12.9133 16.0002L14.2973 17.0284L15.2752 18.2707L15.862 19.7419C16.1765 20.4839 16.0358 31.4583 16.061 32.562L15.8654 34.0241L15.3232 34.7581L14.4174 34.8611C13.9621 34.9653 4.14836 29.1168 3.44264 28.7447V28.7413ZM0.644909 9.96399L1.08184 8.9965C1.11844 8.94727 1.76354 8.02787 1.79213 8.03589C1.76354 8.12405 1.59197 8.42746 1.63201 8.51791L2.03462 9.44533C2.04034 9.45907 2.05292 9.46021 2.06093 9.47052C2.04606 9.49113 2.42809 9.76706 2.44067 9.7808C2.42466 9.77737 1.98429 9.57929 1.98201 9.60677C1.95799 9.57127 0.981182 9.72012 0.949156 9.7121C0.849645 9.71668 0.667784 10.0247 0.608307 10.0911L0.646054 9.96399H0.644909ZM13.0551 1.17186L14.637 0.486035L16.2017 0.260479L17.7664 0.486035L19.3483 1.17186C20.038 1.6058 29.9718 7.16801 30.1228 7.62485L30.4866 8.46181L30.1228 9.29877C30.0084 9.72928 20.0059 15.3396 19.346 15.7529L17.7653 16.4376L16.2005 16.6643L14.6358 16.4376C13.8352 16.3368 4.41143 10.7288 3.44378 10.1987L2.27711 9.29877L1.91338 8.46181L2.27711 7.62485C2.41436 7.17717 12.378 1.59779 13.054 1.17186H13.0551ZM30.7004 8.13092L31.3192 8.9965C31.3433 9.0549 31.8145 10.0682 31.7951 10.0922C31.731 10.0327 31.556 9.69836 31.4496 9.71096L30.4545 9.59646C30.4408 9.59532 30.4316 9.60448 30.4191 9.60677C30.4122 9.58501 29.9753 9.77851 29.9581 9.78309C29.9718 9.76706 30.3539 9.49227 30.3401 9.47052C30.3482 9.46021 30.3596 9.45907 30.3653 9.44647L30.7656 8.52364C30.8114 8.43433 30.6352 8.12061 30.6066 8.03589L30.6982 8.13206L30.7004 8.13092ZM17.922 16.8086C17.8957 16.82 16.9177 18.0852 16.8925 18.1104C16.8891 18.1264 16.8845 18.1333 16.8719 18.1447C16.8719 18.1676 16.2554 19.648 16.2703 19.6698C16.2474 19.6812 16.2097 20.1953 16.2005 20.2137L16.1388 19.6858C16.1308 19.6732 16.1296 19.6652 16.1296 19.6503C16.1148 19.6355 15.5406 18.131 15.5143 18.1298C15.5223 18.1024 14.5123 16.8566 14.5043 16.8349C14.4906 16.8303 14.4848 16.82 14.478 16.8086L14.0582 16.4971L14.5386 16.7055C14.5535 16.7055 14.5615 16.7066 14.5741 16.7158C14.5946 16.7112 16.1822 16.9631 16.1982 16.9425C16.2177 16.9631 17.7996 16.7112 17.8224 16.7158C17.8327 16.7078 17.8442 16.7055 17.8579 16.7055L18.3372 16.4983L17.9185 16.8086H17.922Z" fill="#9B1515"/>
</g>
<path id="Vector_15" d="M32.3864 12.1715C32.3315 11.7593 32.2114 10.2457 32.0261 9.87698C32.0135 9.85522 31.5846 8.87514 31.5606 8.85797C31.3581 8.53623 30.8217 7.80231 30.5426 7.55386C30.0119 6.88635 20.4738 1.51421 19.481 0.922264C19.4398 0.914249 17.8808 0.215825 17.8384 0.211246C16.8525 -0.0692691 15.5497 -0.071559 14.5638 0.211246C13.7254 0.337191 4.30048 5.92115 3.29394 6.48447C2.97024 6.72949 1.71207 7.60882 1.48903 7.942C1.47416 7.96375 0.842787 8.82591 0.839356 8.85682C0.815336 8.87399 0.386412 9.85522 0.37383 9.87698C0.195398 10.2365 0.0672907 11.7593 0.0146761 12.1715C0.0284016 13.3828 -0.101991 24.2267 0.221703 25.0751C0.260592 25.4541 0.690662 26.2659 0.839356 26.6117C0.839356 26.6197 0.841644 26.6254 0.847363 26.6323C0.861089 26.6472 1.47759 27.5173 1.48903 27.5254C2.38234 28.7825 11.5247 33.6371 12.9441 34.5577C12.9682 34.5634 14.5455 35.2573 14.5626 35.2573C14.9149 35.4175 15.8391 35.4404 16.2143 35.492C16.5917 35.4633 17.4884 35.3786 17.8373 35.2573C17.8545 35.2607 19.4409 34.5588 19.4649 34.5542C20.921 33.6085 29.9798 28.8089 30.9098 27.5254C30.92 27.5173 31.5423 26.6403 31.5549 26.6254C31.5571 26.6174 31.5617 26.6071 31.5686 26.6014C31.7299 26.2522 32.1165 25.4347 32.1759 25.0637C32.4939 24.2851 32.3647 13.3141 32.383 12.1715H32.3864ZM28.9607 28.7413C28.215 29.1352 18.4755 34.9458 17.986 34.8577L17.0813 34.7535L16.538 34.0196C16.2246 33.7058 16.3721 22.2265 16.3435 21.4491L16.5402 19.7385L17.1282 18.2672L18.105 17.0238C18.5911 16.3838 28.1555 11.0151 29.098 10.4426L30.4603 9.88041L31.3661 9.9846L31.9094 10.7162C32.224 11.0437 32.0741 22.5013 32.1027 23.289L31.906 24.9973L31.317 26.4708L30.3401 27.7131L28.9596 28.7402L28.9607 28.7413ZM17.2608 35.1061L16.2017 35.2092C16.1353 35.2 15.027 35.105 15.011 35.0741C15.1036 35.0535 15.4559 35.0535 15.5154 34.9687L16.1136 34.1592C16.1228 34.1478 16.117 34.1363 16.1228 34.1237C16.1468 34.1283 16.196 33.6543 16.2017 33.6371L16.2623 34.094C16.2646 34.1077 16.276 34.1157 16.2806 34.1272C16.2646 34.165 16.8788 34.9367 16.888 34.9676C16.9429 35.0512 17.3043 35.0557 17.3912 35.0729L17.2608 35.1038V35.1061ZM3.44264 28.7413L2.06436 27.7154L1.08298 26.472L0.497362 25.0007L0.298335 23.2924C0.329218 22.4749 0.173664 11.0826 0.493927 10.7208L1.03609 9.98804L1.94312 9.88385C2.37089 9.76935 12.227 15.6361 12.9133 16.0002L14.2973 17.0284L15.2752 18.2707L15.862 19.7419C16.1765 20.4839 16.0358 31.4583 16.061 32.562L15.8654 34.0241L15.3232 34.7581L14.4174 34.8611C13.9621 34.9653 4.14836 29.1168 3.44264 28.7447V28.7413ZM0.644909 9.96399L1.08184 8.9965C1.11844 8.94727 1.76354 8.02787 1.79213 8.03589C1.76354 8.12405 1.59197 8.42746 1.63201 8.51791L2.03462 9.44533C2.04034 9.45907 2.05292 9.46021 2.06093 9.47052C2.04606 9.49113 2.42809 9.76706 2.44067 9.7808C2.42466 9.77737 1.98429 9.57929 1.98201 9.60677C1.95799 9.57127 0.981182 9.72012 0.949156 9.7121C0.849645 9.71668 0.667784 10.0247 0.608307 10.0911L0.646054 9.96399H0.644909ZM13.0551 1.17186L14.637 0.486035L16.2017 0.260479L17.7664 0.486035L19.3483 1.17186C20.038 1.6058 29.9718 7.16801 30.1228 7.62485L30.4866 8.46181L30.1228 9.29877C30.0084 9.72928 20.0059 15.3396 19.346 15.7529L17.7653 16.4376L16.2005 16.6643L14.6358 16.4376C13.8352 16.3368 4.41143 10.7288 3.44378 10.1987L2.27711 9.29877L1.91338 8.46181L2.27711 7.62485C2.41436 7.17717 12.378 1.59779 13.054 1.17186H13.0551ZM30.7004 8.13092L31.3192 8.9965C31.3433 9.0549 31.8145 10.0682 31.7951 10.0922C31.731 10.0327 31.556 9.69836 31.4496 9.71096L30.4545 9.59646C30.4408 9.59532 30.4316 9.60448 30.4191 9.60677C30.4122 9.58501 29.9753 9.77851 29.9581 9.78309C29.9718 9.76706 30.3539 9.49227 30.3401 9.47052C30.3482 9.46021 30.3596 9.45907 30.3653 9.44647L30.7656 8.52364C30.8114 8.43433 30.6352 8.12061 30.6066 8.03589L30.6982 8.13206L30.7004 8.13092ZM17.922 16.8086C17.8957 16.82 16.9177 18.0852 16.8925 18.1104C16.8891 18.1264 16.8845 18.1333 16.8719 18.1447C16.8719 18.1676 16.2554 19.648 16.2703 19.6698C16.2474 19.6812 16.2097 20.1953 16.2005 20.2137L16.1388 19.6858C16.1308 19.6732 16.1296 19.6652 16.1296 19.6503C16.1148 19.6355 15.5406 18.131 15.5143 18.1298C15.5223 18.1024 14.5123 16.8566 14.5043 16.8349C14.4906 16.8303 14.4848 16.82 14.478 16.8086L14.0582 16.4971L14.5386 16.7055C14.5535 16.7055 14.5615 16.7066 14.5741 16.7158C14.5946 16.7112 16.1822 16.9631 16.1982 16.9425C16.2177 16.9631 17.7996 16.7112 17.8224 16.7158C17.8327 16.7078 17.8442 16.7055 17.8579 16.7055L18.3372 16.4983L17.9185 16.8086H17.922Z" fill="url(#paint13_linear_1845_14670)"/>
</g>
<g id="Group_6">
<path id="Vector_16" d="M6.68413 17.0227C6.65782 17.2391 6.41763 16.9975 6.43822 16.8795C6.43593 16.2521 5.99442 15.4838 5.4534 15.169C5.38477 15.1289 5.32988 15.0327 5.32873 14.956C5.32873 14.877 5.38363 14.845 5.45226 14.885C6.12938 15.2789 6.6807 16.2361 6.68298 17.0227M3.98134 15.4506C3.98362 16.3929 4.64703 17.5402 5.46141 18.0131C6.27465 18.4859 6.93462 18.1081 6.93119 17.1658C6.9289 16.2212 6.2655 15.074 5.45112 14.5999C4.63788 14.1271 3.97791 14.5049 3.98134 15.4495" fill="white"/>
<path id="Vector_17" d="M5.32983 14.9572C5.32983 15.0339 5.38588 15.1301 5.4545 15.1701C5.99666 15.485 6.43702 16.2533 6.43931 16.8807C6.43931 16.9574 6.49536 17.0536 6.56399 17.0937C6.63262 17.1337 6.68523 17.1005 6.68523 17.0238C6.68294 16.2384 6.13049 15.28 5.4545 14.8862C5.38588 14.8461 5.33097 14.8782 5.33097 14.9572" fill="white"/>
<path id="Vector_18" d="M14.5729 30.697C14.5454 30.9145 14.3064 30.6775 14.3281 30.5539C14.3258 29.9264 13.882 29.1605 13.341 28.8445C13.2747 28.8055 13.2198 28.7093 13.2186 28.6303C13.2186 28.5513 13.2735 28.5216 13.3399 28.5605C14.0193 28.9555 14.5706 29.9127 14.5729 30.6958M11.8712 29.1238C11.8735 30.0661 12.5346 31.2145 13.349 31.6885C14.1645 32.1637 14.8211 31.7813 14.8188 30.839C14.8165 29.8967 14.1554 28.7483 13.3387 28.2731C12.5255 27.8002 11.8689 28.1815 11.8712 29.1238Z" fill="white"/>
<path id="Vector_19" d="M13.2186 28.6314C13.2186 28.7104 13.2747 28.8065 13.341 28.8455C13.8832 29.1603 14.327 29.9275 14.3281 30.5549C14.3281 30.6339 14.3842 30.7301 14.4505 30.769C14.5191 30.8091 14.574 30.777 14.574 30.698C14.5717 29.9149 14.0193 28.9565 13.341 28.5627C13.2747 28.5237 13.2198 28.5535 13.2198 28.6325" fill="white"/>
<path id="Vector_20" d="M17.3135 5.27893C16.3367 5.37969 18.2834 4.73851 17.0767 3.99314C16.928 3.36456 18.6608 4.54272 17.3135 5.27893ZM14.6118 3.7069C12.4695 5.32931 16.4156 6.34374 17.5617 5.4232C18.3829 4.94918 18.3852 4.18092 17.5708 3.70805C16.7576 3.23518 15.4331 3.23289 14.6118 3.70805" fill="white"/>
<path id="Vector_21" d="M17.0755 3.85C16.841 4.02976 18.1346 4.4179 17.0686 5.13579C16.897 5.26746 17.2207 5.35791 17.3145 5.27891C18.114 4.9274 17.9047 3.81909 17.0766 3.85" fill="white"/>
<path id="Vector_22" d="M17.2905 9.85185C16.308 9.95718 18.2616 9.31372 17.0515 8.56721C16.9028 7.93748 18.6345 9.11793 17.2905 9.85185ZM14.5889 8.27982C12.4408 9.90108 16.3869 10.9178 17.5365 9.99382C19.6811 8.37256 15.7327 7.35928 14.5889 8.27982Z" fill="white"/>
<path id="Vector_23" d="M17.0515 8.42303C16.817 8.6108 18.1095 8.99322 17.0446 9.70882C16.8696 9.84163 17.1922 9.93209 17.2906 9.85194C18.0866 9.50158 17.8796 8.39784 17.0526 8.42303" fill="white"/>
<path id="Vector_24" d="M17.2642 14.4259C16.2805 14.5313 18.2353 13.8878 17.0228 13.1401C16.8913 12.5104 18.6001 13.7023 17.2642 14.4259ZM14.5625 12.8539C12.4145 14.4786 16.364 15.4896 17.5101 14.5679C19.6559 12.9444 15.7109 11.9311 14.5625 12.8539Z" fill="white"/>
<path id="Vector_25" d="M17.0263 12.997C16.7907 13.1836 18.082 13.5683 17.0194 14.2828C16.8421 14.4179 17.1693 14.5049 17.2653 14.4259C18.0591 14.0767 17.8555 12.9718 17.0274 12.997" fill="white"/>
<path id="Vector_26" d="M25.3371 21.4252C25.0672 21.5557 25.3817 20.2207 24.2208 20.7886C24.0218 20.8733 24.103 20.5459 24.2208 20.5047C24.9277 19.986 25.7947 20.7566 25.3383 21.4252M24.2208 20.2196C23.4018 20.6924 22.7384 21.8397 22.7407 22.782C22.743 23.7243 23.411 24.1056 24.2299 23.6315C25.6128 23.0728 26.6948 19.1673 24.2208 20.2196Z" fill="white"/>
<path id="Vector_27" d="M24.2197 20.5046C23.6409 21.3163 25.1542 19.9161 25.2136 21.353C25.6609 21.8178 25.5648 19.7088 24.2197 20.5046Z" fill="white"/>
</g>
</g>
<defs>
<linearGradient id="paint0_linear_1845_14670" x1="-27.29" y1="-1.1959" x2="26.5922" y2="34.5645" gradientUnits="userSpaceOnUse">
<stop stop-color="#C41C1C"/>
<stop offset="0.33" stop-color="#C01B21"/>
<stop offset="0.74" stop-color="#B41B30"/>
<stop offset="1" stop-color="#AB1B3E"/>
</linearGradient>
<linearGradient id="paint1_linear_1845_14670" x1="0.102758" y1="0.154146" x2="45.5926" y2="23.5813" gradientUnits="userSpaceOnUse">
<stop stop-color="#C41C1C"/>
<stop offset="0.33" stop-color="#C01B21"/>
<stop offset="0.74" stop-color="#B41B30"/>
<stop offset="1" stop-color="#AB1B3E"/>
</linearGradient>
<linearGradient id="paint2_linear_1845_14670" x1="-27.5543" y1="22.3698" x2="48.5333" y2="22.3698" gradientUnits="userSpaceOnUse">
<stop stop-color="#C41C1C"/>
<stop offset="0.33" stop-color="#C01B21"/>
<stop offset="0.74" stop-color="#B41B30"/>
<stop offset="1" stop-color="#AB1B3E"/>
</linearGradient>
<linearGradient id="paint3_linear_1845_14670" x1="-20.3346" y1="6.28419" x2="60.8928" y2="81.594" gradientUnits="userSpaceOnUse">
<stop stop-color="#BC1B36"/>
<stop offset="0.09" stop-color="#B81B37"/>
<stop offset="0.5" stop-color="#AE1B3C"/>
<stop offset="1" stop-color="#AB1B3E"/>
</linearGradient>
<linearGradient id="paint4_linear_1845_14670" x1="-11.6693" y1="-3.08849" x2="69.6291" y2="72.2854" gradientUnits="userSpaceOnUse">
<stop stop-color="#BC1B36"/>
<stop offset="0.09" stop-color="#B81B37"/>
<stop offset="0.5" stop-color="#AE1B3C"/>
<stop offset="1" stop-color="#AB1B3E"/>
</linearGradient>
<linearGradient id="paint5_linear_1845_14670" x1="-0.78378" y1="-14.8025" x2="80.4414" y2="60.5052" gradientUnits="userSpaceOnUse">
<stop stop-color="#BC1B36"/>
<stop offset="0.09" stop-color="#B81B37"/>
<stop offset="0.5" stop-color="#AE1B3C"/>
<stop offset="1" stop-color="#AB1B3E"/>
</linearGradient>
<linearGradient id="paint6_linear_1845_14670" x1="-20.656" y1="6.63215" x2="60.5692" y2="81.9382" gradientUnits="userSpaceOnUse">
<stop stop-color="#BC1B36"/>
<stop offset="0.09" stop-color="#B81B37"/>
<stop offset="0.5" stop-color="#AE1B3C"/>
<stop offset="1" stop-color="#AB1B3E"/>
</linearGradient>
<linearGradient id="paint7_linear_1845_14670" x1="-0.0426159" y1="-15.604" x2="81.1871" y2="59.706" gradientUnits="userSpaceOnUse">
<stop stop-color="#BC1B36"/>
<stop offset="0.09" stop-color="#B81B37"/>
<stop offset="0.5" stop-color="#AE1B3C"/>
<stop offset="1" stop-color="#AB1B3E"/>
</linearGradient>
<linearGradient id="paint8_linear_1845_14670" x1="-7.00832" y1="-8.07713" x2="74.2054" y2="67.2191" gradientUnits="userSpaceOnUse">
<stop stop-color="#BC1B36"/>
<stop offset="0.09" stop-color="#B81B37"/>
<stop offset="0.5" stop-color="#AE1B3C"/>
<stop offset="1" stop-color="#AB1B3E"/>
</linearGradient>
<linearGradient id="paint9_linear_1845_14670" x1="-8.84983" y1="-6.10306" x2="72.3764" y2="69.2044" gradientUnits="userSpaceOnUse">
<stop stop-color="#BC1B36"/>
<stop offset="0.09" stop-color="#B81B37"/>
<stop offset="0.5" stop-color="#AE1B3C"/>
<stop offset="1" stop-color="#AB1B3E"/>
</linearGradient>
<linearGradient id="paint10_linear_1845_14670" x1="-17.4431" y1="3.16642" x2="63.7832" y2="78.4738" gradientUnits="userSpaceOnUse">
<stop stop-color="#BC1B36"/>
<stop offset="0.09" stop-color="#B81B37"/>
<stop offset="0.5" stop-color="#AE1B3C"/>
<stop offset="1" stop-color="#AB1B3E"/>
</linearGradient>
<linearGradient id="paint11_linear_1845_14670" x1="-5.9515" y1="-9.23113" x2="75.2771" y2="66.0788" gradientUnits="userSpaceOnUse">
<stop stop-color="#BC1B36"/>
<stop offset="0.09" stop-color="#B81B37"/>
<stop offset="0.5" stop-color="#AE1B3C"/>
<stop offset="1" stop-color="#AB1B3E"/>
</linearGradient>
<linearGradient id="paint12_linear_1845_14670" x1="1.48897" y1="-17.2539" x2="82.7153" y2="58.0549" gradientUnits="userSpaceOnUse">
<stop stop-color="#BC1B36"/>
<stop offset="0.09" stop-color="#B81B37"/>
<stop offset="0.5" stop-color="#AE1B3C"/>
<stop offset="1" stop-color="#AB1B3E"/>
</linearGradient>
<linearGradient id="paint13_linear_1845_14670" x1="-4.79499" y1="-1.72602" x2="38.1936" y2="38.0166" gradientUnits="userSpaceOnUse">
<stop stop-color="#C41C1C"/>
<stop offset="0.33" stop-color="#C01B21"/>
<stop offset="0.74" stop-color="#B41B30"/>
<stop offset="1" stop-color="#AB1B3E"/>
</linearGradient>
</defs>
</svg>
